<svg width="134" height="42" viewBox="0 0 134 42" fill="none" xmlns="http://www.w3.org/2000/svg">
<g clip-path="url(#clip0)">
<path fill-rule="evenodd" clip-rule="evenodd" d="M7.72652 16.2152V13.7402H10.806V16.2152V16.3952V16.7102C10.806 20.9852 8.96727 24.8702 6.02236 27.6902C4.39295 29.2352 2.43466 30.4502 0.26709 31.2452V28.0502C1.59753 27.4352 2.80838 26.5952 3.83984 25.6202C6.23164 23.3252 7.72652 20.1752 7.72652 16.7102V16.3952V16.2152ZM0.26709 33.4052V36.4802C3.795 35.5202 6.96413 33.7052 9.49047 31.3052C11.389 29.4902 12.9436 27.3302 14.0199 24.9452C14.7225 26.9102 15.6494 28.7552 16.8004 30.4952C17.9216 28.9952 18.8035 27.0302 19.6108 24.9602C20.6871 27.3452 22.2268 29.5052 24.1253 31.3202C26.6516 33.7352 29.8208 35.5502 33.3487 36.4952V33.4202C30.6729 32.5502 28.2661 31.1102 26.3078 29.2352C23.0191 26.1002 20.9711 21.7652 20.9711 17.0102V3.8252H17.9066V16.9952C17.9066 19.3202 17.518 22.0202 16.8154 24.1202C16.1128 22.0202 15.7241 19.3202 15.7241 16.9952V3.8252H12.6447V16.9952C12.6447 21.7502 10.6116 26.0852 7.3229 29.2202C5.34967 31.0952 2.94292 32.5502 0.26709 33.4052ZM0.26709 38.3852V41.4002C5.28987 40.3802 9.78945 37.9652 13.3024 34.6202C14.0498 33.9002 14.7524 33.1502 15.4102 32.3402L15.3055 32.1752L15.2756 32.2202L15.3055 32.1752C14.7524 31.3202 14.2292 30.4352 13.7658 29.5352C12.9735 30.6152 12.0916 31.6202 11.1348 32.5352C8.17498 35.3552 4.43779 37.4102 0.26709 38.3852ZM22.7949 16.2152V13.7402H25.8743V16.2152V16.3952V16.7102C25.8743 20.1752 27.3542 23.3252 29.761 25.6202C30.8074 26.6102 32.0182 27.4502 33.3636 28.0652V31.2602C31.1811 30.4652 29.2228 29.2502 27.5934 27.6902C24.6336 24.8702 22.8098 20.9852 22.8098 16.7102V16.3952V16.2152H22.7949ZM18.3102 32.4452C18.37 32.3552 18.4298 32.2652 18.4896 32.1752L18.5195 32.2202L18.4896 32.1752C19.0128 31.3652 19.5061 30.5252 19.9695 29.6552C20.7319 30.6752 21.584 31.6502 22.5108 32.5352C25.4557 35.3402 29.1929 37.4102 33.3636 38.3702V41.3852C28.3409 40.3652 23.8413 37.9502 20.3283 34.6052C19.6108 33.9302 18.9381 33.2102 18.3102 32.4452Z" fill="white"/>
<path fill-rule="evenodd" clip-rule="evenodd" d="M44.4855 15.135C45.1432 11.565 46.0252 7.575 46.4139 3.96H49.8372V20.67H47.6098V14.055L47.8639 8.085C47.55 10.005 46.2943 17.085 44.7097 20.49V20.505H44.4706H44.2314V20.49C42.6468 17.1 41.3911 10.02 41.0772 8.085L41.3463 14.055V20.67H39.1339V3.96H42.5571C42.9607 7.56 43.8278 11.55 44.4855 15.135ZM133.386 20.67V3.96H130.545L127.929 13.725V3.96H125.657V20.67L127.959 20.7L131.084 9.045V20.67H133.386ZM132.324 0H126.719V1.965H132.324V0ZM96.0737 6.87V7.56V8.91C96.0737 10.245 95.5206 11.22 94.6535 11.835C95.5953 12.585 96.0737 13.74 96.0737 15.165V20.64C94.519 20.64 92.9793 20.64 91.4246 20.64H88.8833V3.93H91.4246C92.9793 3.93 94.519 3.93 96.0737 3.93V6.87ZM91.4246 13.2V18.255H93.5174V15C93.5174 13.305 92.3664 13.14 91.4246 13.2ZM91.4246 6.315V10.8C92.3664 10.845 93.5174 10.8 93.5174 9.09V7.575V6.315H91.4246ZM82.0667 20.64H79.5254V3.93H82.0667H84.4884H87.0745V20.64H84.4884H82.0667ZM84.4884 6.315H82.1115V18.255H84.4884V6.315ZM54.2022 20.64H51.6609V3.93H54.2022H56.6239H59.21V20.64H56.6239H54.2022ZM56.6239 6.315H54.247V18.255H56.6239V6.315ZM100.304 20.64H97.7629V3.93H100.304H102.726H105.327V10.635H102.726V6.315H100.304V18.255H102.726V13.935H105.327V20.64H102.726H100.304ZM63.5601 20.64H61.0188V3.93H63.5601H65.9818H68.5679V10.635H65.9818V6.315H63.5601V18.255H65.9818V13.935H68.5679V20.64H65.9818H63.5601ZM109.662 20.67H107.121V3.96H109.662V10.515H110.081C111.456 10.515 111.904 9.015 111.904 7.89V3.96H114.446V7.785C114.446 9.54 113.803 10.86 112.532 11.73C113.908 12.69 114.446 13.905 114.446 15.675V20.685H111.904V15.57C111.904 14.49 111.396 13.185 110.096 13.185H109.647V20.67H109.662ZM116.135 20.67V3.96H118.407V13.725L121.023 3.96H123.863V20.67H121.576V9.045L118.437 20.7L116.135 20.67ZM72.918 20.67H70.3767V3.96H72.918V10.515H73.3366C74.7119 10.515 75.1604 9.015 75.1604 7.89V3.96H77.7016V7.785C77.7016 9.54 77.0588 10.86 75.7882 11.73C77.1485 12.69 77.7016 13.905 77.7016 15.675V20.685H75.1604V15.57C75.1604 14.49 74.6521 13.185 73.3516 13.185H72.9031V20.67H72.918Z" fill="white"/>
<path fill-rule="evenodd" clip-rule="evenodd" d="M51.4516 42H48.9104V25.29H56.4744V42H53.8883V27.675H51.4666V42H51.4516ZM42.1087 42H39.5674V25.29H42.1087H44.5304H47.1165V31.995H44.5304V27.675H42.1087V39.615H44.5304V35.295H47.1165V42H44.5304H42.1087ZM60.8096 42H58.2683V25.29H60.8096H63.2313H65.8324V42H63.2313H60.8096ZM63.2163 27.675H60.8395V39.615H63.2163V27.675ZM75.4295 25.29H83.2925V27.675H80.6316V42H78.0903V27.675H75.4295V25.29ZM74.7418 31.095V31.8V33.15C74.7418 35.715 73.4114 37.515 70.9448 37.515H70.0927V42H67.5515V25.29C69.9433 25.305 72.35 25.29 74.7418 25.29V31.095ZM70.0927 27.675V35.115C71.0495 35.175 72.1856 35.01 72.1856 33.3V31.785V27.675H70.0927Z" fill="white"/>
</g>
<defs>
<clipPath id="clip0">
<rect width="133.119" height="42" fill="white" transform="translate(0.26709)"/>
</clipPath>
</defs>
</svg>
