<?xml version="1.0" standalone="no"?>
<!DOCTYPE svg PUBLIC "-//W3C//DTD SVG 20010904//EN"
 "http://www.w3.org/TR/2001/REC-SVG-20010904/DTD/svg10.dtd">
<svg version="1.0" xmlns="http://www.w3.org/2000/svg"
 width="277.000000pt" height="277.000000pt" viewBox="0 0 277.000000 277.000000"
 preserveAspectRatio="xMidYMid meet">
<metadata>
Created by potrace 1.11, written by Peter Selinger 2001-2013
</metadata>
<g transform="translate(0.000000,277.000000) scale(0.100000,-0.100000)"
fill="#000000" stroke="none">
<path d="M2012 2638 c-7 -7 -12 -17 -12 -24 0 -7 -8 -11 -17 -9 -10 1 -23 -2
-30 -7 -7 -6 -14 -5 -19 3 -5 8 -3 9 6 4 9 -5 11 -4 6 4 -10 15 -29 3 -22 -15
3 -8 0 -11 -9 -8 -8 3 -11 13 -8 22 4 13 2 13 -9 -2 -8 -10 -20 -16 -26 -13
-6 5 -8 -1 -5 -15 4 -21 3 -21 -7 -5 -9 14 -15 15 -25 7 -8 -6 -12 -17 -9 -24
3 -7 -2 -13 -10 -13 -8 0 -12 5 -9 10 3 6 1 7 -5 3 -5 -3 -12 -1 -14 6 -3 7
-7 5 -11 -6 -4 -10 -3 -15 3 -11 6 3 10 1 10 -6 0 -6 -8 -9 -19 -6 -21 5 -35
-16 -25 -36 3 -7 -1 -4 -9 5 -16 20 -28 14 -20 -10 3 -11 2 -13 -4 -6 -11 14
-50 13 -50 -3 0 -7 5 -9 11 -6 6 3 5 0 -1 -7 -11 -12 -15 -11 -27 6 -15 18
-15 18 -9 -3 3 -14 1 -23 -6 -23 -7 0 -9 5 -5 12 4 7 3 8 -5 4 -6 -4 -8 -12
-5 -18 5 -7 0 -9 -15 -5 -19 5 -20 3 -9 -11 11 -13 11 -15 -4 -9 -13 5 -18 1
-18 -12 0 -10 -7 -22 -16 -25 -14 -5 -15 -4 -4 9 7 9 10 18 6 22 -3 3 -6 1 -6
-6 0 -8 -6 -11 -16 -7 -10 4 -13 2 -8 -6 5 -7 2 -9 -8 -5 -19 7 -38 -11 -32
-28 7 -17 -13 -29 -22 -14 -5 8 -3 9 6 4 9 -5 11 -4 6 4 -10 15 -27 4 -20 -13
3 -7 -1 -18 -9 -24 -11 -9 -14 -8 -14 3 0 8 4 12 9 9 4 -3 5 2 1 12 -5 14 -7
14 -18 -5 -6 -12 -14 -18 -19 -14 -4 4 -4 0 -1 -9 4 -9 1 -19 -5 -23 -6 -3 -9
-2 -8 3 2 6 -1 10 -7 11 -5 0 -10 -5 -11 -12 -3 -32 -5 -37 -15 -37 -8 0 -7 6
2 18 13 15 12 16 -3 3 -10 -7 -18 -20 -18 -27 0 -8 -3 -13 -7 -13 -21 3 -33
-2 -27 -13 4 -6 3 -8 -3 -5 -6 4 -14 -1 -17 -10 -6 -15 -8 -15 -16 -3 -8 13
-11 13 -22 1 -7 -8 -8 -11 -2 -8 7 4 14 1 17 -7 4 -10 0 -12 -14 -9 -17 5 -23
-4 -21 -28 1 -3 -9 -4 -22 -2 -16 3 -25 -1 -30 -13 -5 -14 -4 -15 9 -4 9 7 17
11 20 9 2 -2 -12 -15 -32 -27 -19 -13 -32 -19 -29 -13 4 5 -2 9 -13 8 -19 -1
-19 -2 -3 -21 16 -18 16 -19 -8 -6 -24 13 -24 12 -10 -5 14 -17 14 -18 -10 -5
-24 13 -24 12 -10 -5 14 -17 13 -18 -7 -13 -12 3 -21 2 -20 -3 1 -5 -9 -15
-23 -22 -14 -7 -24 -20 -24 -29 1 -11 -4 -14 -14 -11 -10 4 -13 2 -8 -5 4 -7
2 -12 -3 -12 -6 0 -11 -7 -11 -16 0 -8 -5 -12 -10 -9 -6 4 -7 11 -4 17 4 7 2
8 -4 4 -6 -4 -8 -14 -5 -24 6 -15 5 -15 -10 -3 -16 13 -17 12 -8 -11 9 -23 7
-25 -15 -20 -13 2 -24 0 -24 -7 0 -5 8 -8 18 -5 14 5 14 4 2 -4 -10 -8 -18 -8
-27 0 -12 10 -17 4 -14 -14 0 -5 -4 -9 -9 -9 -6 -1 -16 -2 -22 -3 -7 -1 -12
-7 -11 -14 2 -7 -1 -12 -6 -12 -5 0 -12 -8 -16 -17 -5 -15 -4 -16 6 -5 7 6 18
12 23 12 6 0 3 -5 -6 -11 -10 -5 -18 -17 -18 -26 0 -14 -2 -14 -15 3 -13 18
-14 18 -15 1 0 -11 -4 -15 -12 -11 -7 4 -8 3 -4 -4 4 -7 2 -12 -4 -12 -6 0 -8
-4 -5 -10 3 -5 -1 -10 -10 -10 -8 0 -18 -7 -21 -15 -4 -8 -10 -13 -14 -10 -4
3 -10 -2 -13 -10 -4 -10 -1 -12 11 -9 14 5 15 4 2 -5 -8 -6 -24 -8 -35 -4 -18
5 -18 4 -6 -11 13 -15 12 -17 -11 -12 -16 2 -25 0 -24 -7 0 -7 -2 -12 -5 -12
-17 0 -47 -38 -42 -53 5 -11 2 -14 -9 -10 -8 4 -15 1 -15 -8 0 -7 5 -10 11 -7
6 4 5 -1 -3 -10 -10 -13 -17 -14 -33 -6 -14 7 -18 7 -14 1 4 -6 -2 -15 -11
-21 -10 -6 -12 -11 -5 -11 6 0 11 -6 10 -12 -4 -19 -30 -37 -45 -31 -7 3 -13
0 -13 -5 0 -6 8 -13 18 -15 16 -4 16 -5 -1 -6 -12 -1 -16 -5 -11 -13 5 -9 3
-9 -9 1 -14 11 -18 11 -23 -3 -5 -14 -9 -14 -22 -4 -14 12 -14 11 -1 -10 12
-19 12 -24 0 -31 -8 -5 -11 -16 -8 -26 4 -10 3 -14 -4 -10 -5 4 -18 1 -27 -6
-15 -12 -15 -12 1 7 14 17 14 21 2 21 -8 0 -12 -4 -9 -9 3 -4 -2 -11 -12 -15
-14 -5 -13 -8 7 -20 15 -9 17 -12 5 -9 -14 5 -17 2 -12 -9 3 -9 2 -13 -4 -10
-9 6 -14 -8 -11 -28 1 -5 -2 -6 -7 -3 -4 2 -14 1 -22 -4 -12 -7 -12 -11 0 -27
14 -17 14 -17 -7 0 -21 18 -21 18 -19 -7 3 -22 1 -24 -11 -14 -8 6 -13 7 -12
2 3 -19 -1 -35 -9 -30 -4 2 -14 1 -21 -3 -10 -6 -9 -10 4 -14 10 -5 14 -3 9 5
-4 7 -3 8 5 4 9 -6 9 -12 -1 -24 -20 -27 -22 -28 -16 -11 4 9 1 16 -7 16 -8 0
-11 -7 -7 -15 3 -9 1 -13 -5 -9 -6 4 -13 0 -17 -8 -3 -8 0 -17 6 -21 7 -5 8
-2 3 6 -5 9 -4 11 3 6 20 -12 13 -28 -8 -21 -22 7 -28 -10 -7 -19 6 -3 -1 -4
-16 -2 -15 2 -25 1 -22 -2 2 -3 0 -11 -6 -19 -6 -7 -8 -13 -3 -13 4 0 -1 -7
-12 -16 -15 -13 -16 -15 -2 -10 11 3 15 1 12 -8 -3 -8 -14 -12 -27 -9 -18 4
-19 3 -7 -6 13 -10 13 -12 0 -20 -8 -5 -18 -7 -24 -4 -5 3 -6 1 -2 -5 3 -6 -1
-17 -9 -25 -17 -17 -19 -27 -7 -27 5 0 14 11 20 25 6 14 16 25 22 25 6 0 4
-10 -5 -23 -8 -13 -12 -27 -8 -32 5 -4 2 -4 -6 0 -11 6 -13 4 -8 -9 5 -13 3
-15 -11 -7 -14 7 -17 4 -19 -20 -2 -22 1 -27 15 -22 14 6 15 5 2 -9 -8 -8 -21
-13 -28 -11 -8 4 -10 0 -6 -11 4 -10 13 -15 20 -12 22 8 16 -2 -7 -15 -13 -7
-19 -7 -15 -1 3 6 3 13 -2 16 -4 2 -8 -6 -8 -19 0 -13 3 -22 6 -20 3 2 6 -5 7
-15 1 -11 -2 -22 -8 -25 -5 -4 -9 -14 -8 -23 0 -14 2 -14 10 3 7 15 8 11 5
-18 -3 -21 0 -37 5 -37 6 0 7 5 4 10 -3 6 -1 10 4 10 6 0 11 -9 11 -20 0 -11
7 -20 16 -20 8 0 13 4 9 9 -3 5 -1 12 4 15 11 7 9 -13 -2 -31 -6 -9 -3 -11 9
-6 13 5 15 3 9 -8 -4 -8 -5 -11 0 -7 4 4 15 2 24 -5 14 -11 14 -10 2 6 -8 9
-10 21 -6 25 4 4 10 1 12 -5 3 -7 9 -13 14 -13 6 0 7 5 3 12 -4 6 -3 8 4 4 6
-3 13 -2 17 4 3 5 10 10 15 10 6 0 2 -9 -7 -20 -16 -18 -29 -60 -15 -45 4 4 7
10 7 15 0 15 54 59 61 49 4 -6 11 -6 20 2 8 6 14 8 14 3 0 -5 7 0 15 10 8 11
15 14 15 8 0 -7 5 -12 11 -12 5 0 7 5 3 12 -4 7 -3 8 4 4 6 -4 9 -13 5 -21 -3
-8 -1 -15 5 -15 6 0 9 11 8 24 -2 17 1 23 10 19 8 -3 14 -10 14 -17 0 -7 3 -6
9 2 4 7 18 14 29 15 12 1 22 5 22 10 0 4 5 5 12 1 7 -4 8 -3 4 4 -5 9 -13 9
-27 1 -22 -12 -35 -7 -25 10 4 6 14 7 23 4 11 -5 14 -3 8 6 -6 10 -3 11 14 2
18 -10 21 -9 22 6 0 16 1 16 9 -2 5 -12 9 -14 9 -6 1 11 5 11 19 -2 10 -10 23
-17 28 -17 5 0 1 5 -9 11 -9 5 -17 15 -17 21 0 6 7 5 17 -3 13 -11 13 -8 -3
16 -11 17 -13 26 -5 21 8 -5 17 -3 22 5 6 10 9 10 9 2 0 -7 11 -12 24 -11 14
1 22 6 20 10 -3 4 -12 5 -22 2 -15 -5 -15 -5 1 6 9 6 21 9 26 5 5 -3 13 0 17
6 5 8 3 9 -7 4 -12 -7 -12 -6 -1 7 7 9 24 15 37 13 15 -1 32 6 42 18 10 12 12
17 4 12 -10 -6 -12 -4 -7 4 5 7 15 10 23 7 11 -5 13 -1 8 17 -7 21 -6 21 7 4
13 -17 15 -17 27 -3 11 13 11 16 1 16 -8 0 -10 3 -7 6 4 4 13 1 22 -6 13 -11
14 -10 9 5 -6 15 -4 16 14 6 22 -12 41 2 21 15 -8 5 -9 3 -4 -6 5 -9 4 -11 -4
-6 -8 5 -5 16 11 35 13 15 25 24 27 19 1 -5 -5 -16 -15 -24 -18 -13 -17 -14 6
-10 16 2 24 9 22 19 -1 8 3 19 9 23 7 4 9 3 5 -4 -3 -6 -2 -13 3 -16 5 -4 8 5
6 19 -1 14 0 23 3 20 3 -3 12 5 20 17 10 18 12 19 7 3 -3 -11 -3 -16 1 -12 4
4 14 1 23 -6 14 -11 15 -10 1 7 -14 18 -13 19 4 13 16 -6 17 -5 6 8 -11 13
-11 16 1 13 8 -2 13 3 11 10 -1 8 2 11 8 7 6 -3 8 -11 5 -16 -4 -5 -1 -9 6 -9
7 0 9 8 6 21 -5 17 -3 18 10 8 12 -11 14 -10 11 5 -2 12 4 20 15 21 9 2 17 -2
17 -8 0 -6 7 -1 16 12 13 18 18 20 25 10 5 -9 7 1 4 24 -5 34 -3 37 10 23 18
-17 20 -30 3 -20 -7 4 -8 3 -4 -5 9 -14 27 -4 24 12 -3 19 12 57 24 57 7 0 7
-4 -1 -13 -8 -10 -7 -14 4 -14 7 0 14 3 13 6 -2 21 4 31 14 25 7 -5 9 -2 6 8
-4 8 -2 21 4 29 8 11 9 11 5 -2 -4 -13 2 -16 28 -15 18 0 31 5 28 9 -3 5 -11
6 -19 3 -8 -3 -14 -1 -14 3 0 5 7 12 16 15 9 4 14 13 10 22 -3 8 -2 12 4 9 6
-3 10 -1 10 4 0 12 28 10 49 -3 9 -6 12 -5 7 2 -3 6 -2 13 4 17 7 4 7 12 0 25
-8 15 -6 17 10 13 11 -3 18 -9 15 -13 -3 -5 -1 -11 4 -14 10 -7 9 13 -2 30 -4
7 0 17 8 24 8 7 12 17 8 24 -3 6 -2 8 2 3 5 -4 19 0 32 8 13 9 27 13 32 10 5
-2 12 2 15 11 3 9 11 12 18 8 7 -4 9 -3 5 1 -4 5 3 15 15 22 13 7 18 12 12 13
-6 0 -23 -9 -38 -21 -19 -15 -24 -16 -20 -5 3 8 14 18 25 21 11 4 16 11 13 17
-4 6 -2 8 3 5 11 -7 28 20 24 36 -1 5 4 5 10 2 8 -5 8 -10 0 -18 -14 -14 -14
-27 1 -27 6 0 8 3 5 7 -4 3 -2 12 4 19 6 8 8 21 5 30 -6 15 -4 15 11 3 15 -12
16 -12 10 5 -7 17 -6 17 10 5 9 -8 14 -9 10 -2 -4 6 -2 13 3 15 6 2 12 12 14
23 1 10 9 21 17 23 8 2 10 0 4 -5 -5 -4 -11 -17 -12 -28 -1 -11 0 -14 3 -7 3
6 9 10 14 7 4 -3 7 8 6 24 -1 20 2 27 11 24 7 -3 10 -10 6 -16 -3 -6 -1 -7 6
-3 9 6 9 11 -1 24 -11 13 -11 14 1 7 11 -6 13 -4 8 8 -4 12 -2 14 11 10 15 -6
16 -5 2 12 -14 17 -14 18 7 7 12 -7 23 -15 25 -19 3 -5 3 -2 2 4 -2 7 5 17 14
22 15 9 14 10 -5 8 -12 0 -19 -5 -16 -11 3 -5 1 -6 -6 -2 -15 9 -5 26 16 26 9
0 13 6 10 15 -4 8 -2 17 4 20 5 4 9 3 8 -2 -3 -18 2 -33 11 -33 5 0 6 7 3 17
-5 12 -3 14 8 8 12 -8 12 -6 1 8 -12 14 -11 16 7 12 13 -2 21 1 20 8 -3 18 12
48 21 42 4 -3 11 2 14 11 3 8 10 12 16 9 6 -4 7 -11 4 -17 -4 -7 -2 -8 5 -4 9
6 9 11 0 22 -6 8 -8 14 -3 14 5 0 2 5 -6 10 -13 9 -13 10 0 11 8 1 19 1 24 0
5 -1 6 5 3 13 -4 9 -1 15 6 13 7 -1 11 3 10 8 0 6 5 16 13 23 19 17 18 2 -2
-27 -16 -22 -16 -22 4 -10 11 7 18 17 16 21 -3 4 -1 8 5 8 6 0 7 8 4 17 -5 12
-2 15 8 11 8 -3 23 0 32 7 16 11 16 13 2 19 -11 4 -14 2 -9 -6 5 -7 3 -8 -6
-3 -9 5 -11 4 -6 -3 5 -8 1 -10 -9 -6 -14 6 -13 8 5 21 11 8 26 11 33 7 7 -5
6 0 -3 11 -9 11 -10 16 -2 11 7 -4 12 -2 12 4 0 6 4 9 9 6 5 -4 8 2 7 11 -4
25 23 63 39 57 7 -3 21 6 30 20 10 14 21 23 26 20 5 -3 9 -1 9 4 0 6 -7 13
-16 16 -23 9 -27 8 -21 -8 3 -8 0 -22 -7 -31 -12 -16 -13 -16 -19 -2 -4 10 -2
16 5 14 7 -1 12 7 13 18 0 13 7 20 19 20 11 0 21 6 24 14 3 9 0 11 -9 6 -8 -5
-4 3 8 16 12 13 22 27 22 32 1 10 11 10 19 1 4 -4 0 -4 -8 1 -8 5 -12 5 -8 0
4 -4 2 -15 -4 -24 -8 -10 -5 -9 9 3 19 15 21 22 11 40 -11 20 -10 20 7 6 17
-14 18 -13 12 4 -5 14 -3 17 8 13 8 -4 17 -1 21 5 4 7 3 8 -4 4 -7 -4 -12 -3
-12 3 0 6 -8 8 -17 4 -15 -5 -15 -3 2 10 10 8 25 13 32 10 19 -7 16 8 -4 23
-15 12 -16 13 -2 8 10 -3 20 0 25 7 4 7 3 10 -3 6 -5 -3 -10 0 -10 8 0 10 5
11 17 5 12 -6 16 -4 16 10 0 11 -6 16 -16 13 -8 -3 -5 4 8 14 13 10 25 28 26
38 2 11 9 19 14 18 6 -2 9 4 6 12 -4 8 -10 15 -16 15 -5 0 -7 -4 -4 -9 7 -11
-21 -8 -31 4 -4 4 -3 5 3 2 12 -7 64 38 64 55 0 5 -10 6 -22 3 -18 -5 -20 -4
-8 4 13 10 13 12 0 21 -8 5 -10 10 -4 10 5 0 15 -5 22 -12 9 -9 10 -6 7 12 -5
25 -15 40 -15 22 0 -7 -8 -12 -17 -11 -10 0 -13 3 -6 5 7 3 9 12 6 21 -4 11
-2 14 5 9 18 -11 14 0 -5 15 -9 8 -14 9 -10 3 4 -7 0 -17 -7 -23 -11 -9 -16
-9 -22 0 -4 7 -3 9 4 5 6 -4 10 1 9 12 -1 14 -7 18 -21 14 -14 -4 -17 -2 -11
8 5 8 3 11 -6 8 -8 -3 -13 -11 -11 -18 2 -10 0 -11 -11 -2 -8 7 -18 8 -22 4
-5 -4 -5 -1 -1 6 4 7 12 9 18 6 7 -4 8 -2 4 4 -5 9 -13 9 -27 2 -11 -6 -16
-16 -13 -22 4 -7 3 -8 -5 -4 -6 4 -9 11 -6 16 3 5 0 12 -6 16 -8 4 -9 3 -5 -4
4 -7 2 -12 -5 -12 -8 0 -7 -5 2 -17 13 -15 12 -15 -8 -3 -16 11 -19 17 -11 27
13 16 6 17 -10 1z m-165 -65 c-4 -3 -1 -13 6 -22 11 -14 10 -14 -5 -2 -16 12
-16 31 -1 31 4 0 3 -3 0 -7z m63 -3 c0 -5 -2 -10 -4 -10 -3 0 -8 5 -11 10 -3
6 -1 10 4 10 6 0 11 -4 11 -10z m300 -75 c-7 -9 -15 -13 -19 -10 -3 3 1 10 9
15 21 14 24 12 10 -5z m-26 -74 c3 -5 -2 -15 -12 -22 -15 -12 -16 -12 -5 2 7
9 10 19 6 22 -3 4 -4 7 0 7 3 0 8 -4 11 -9z m-663 -46 c5 4 6 -1 3 -9 -5 -12
-9 -13 -19 -3 -7 7 -10 16 -7 22 3 5 7 4 10 -3 2 -7 8 -10 13 -7z m-445 -340
c-8 -8 -18 -15 -22 -15 -3 0 -1 7 6 15 7 8 17 15 22 15 5 0 3 -7 -6 -15z m-39
-20 c0 -8 -4 -12 -9 -9 -5 3 -6 10 -3 15 9 13 12 11 12 -6z m-161 -157 c3 -4
-1 -5 -10 -4 -8 1 -18 5 -22 8 -3 4 1 5 10 4 8 -1 18 -5 22 -8z m-118 -133
c-3 -3 -9 2 -12 12 -6 14 -5 15 5 6 7 -7 10 -15 7 -18z m-91 -70 c0 -8 -4 -15
-9 -15 -10 0 -11 14 -1 23 9 10 10 9 10 -8z m-31 -17 c4 -6 3 -8 -4 -4 -6 3
-13 2 -17 -4 -3 -5 -1 -10 5 -10 6 0 8 -5 4 -11 -4 -8 -9 -7 -15 2 -4 8 -3 19
3 26 13 16 15 16 24 1z m-91 -88 c-3 -5 -1 -10 6 -10 7 0 10 -3 6 -6 -9 -9
-28 6 -22 17 4 5 8 9 11 9 3 0 2 -4 -1 -10z m-94 -117 c-12 -20 -14 -14 -5 12
4 9 9 14 11 11 3 -2 0 -13 -6 -23z m833 -125 c-3 -4 -11 -5 -19 -1 -21 7 -19
12 4 10 11 0 18 -5 15 -9z m-234 -177 c0 -5 -7 -14 -15 -21 -10 -9 -15 -9 -15
-1 0 6 5 11 11 11 5 0 7 5 4 10 -3 6 -1 10 4 10 6 0 11 -4 11 -9z m-850 -56
c0 -2 -9 -3 -19 -2 -11 0 -18 5 -15 9 4 6 34 0 34 -7z m463 -210 c4 -8 3 -16
-1 -19 -4 -3 -9 4 -9 15 -2 23 3 25 10 4z m-86 -41 c-3 -3 -12 -4 -19 -1 -8 3
-5 6 6 6 11 1 17 -2 13 -5z m-203 -110 c3 -8 2 -12 -4 -9 -6 3 -10 10 -10 16
0 14 7 11 14 -7z"/>
<path d="M1977 2633 c-4 -3 -7 -11 -7 -17 0 -6 5 -5 12 2 6 6 9 14 7 17 -3 3
-9 2 -12 -2z"/>
<path d="M2253 2515 c0 -8 4 -12 9 -9 5 3 6 10 3 15 -9 13 -12 11 -12 -6z"/>
<path d="M2300 2483 c9 -20 8 -23 -8 -23 -10 0 -23 5 -30 12 -9 9 -12 9 -12 0
0 -7 5 -12 10 -12 6 0 10 -5 10 -11 0 -6 -7 -9 -14 -6 -11 4 -13 1 -9 -10 5
-12 3 -14 -7 -8 -9 5 -11 4 -6 -3 5 -9 14 -7 32 4 15 10 24 12 24 5 0 -6 -7
-11 -15 -11 -20 0 -19 -10 3 -27 15 -13 15 -13 -5 -4 -28 14 -54 14 -30 0 23
-13 22 -25 -4 -32 -12 -3 -18 -10 -14 -17 4 -6 -1 -22 -10 -37 -9 -14 -13 -23
-7 -19 5 3 12 -1 15 -9 4 -9 1 -12 -7 -9 -9 3 -13 -3 -12 -18 1 -19 -4 -23
-27 -21 -25 2 -26 1 -12 -13 19 -19 20 -31 1 -15 -11 9 -13 6 -11 -19 1 -16
-1 -27 -6 -24 -5 3 -7 9 -5 13 3 4 0 13 -5 21 -7 11 -8 6 -4 -16 3 -23 0 -36
-13 -45 -16 -13 -16 -13 -2 6 15 20 14 20 -8 1 -23 -20 -30 -32 -11 -20 7 4
10 1 7 -7 -3 -8 -11 -13 -18 -11 -10 2 -10 -1 1 -14 12 -15 12 -17 0 -9 -11 6
-13 4 -7 -10 5 -15 4 -16 -9 -5 -9 7 -18 10 -22 6 -3 -3 -1 -6 5 -6 7 0 12 -4
12 -10 0 -5 -9 -10 -21 -10 -11 0 -18 -4 -14 -10 3 -5 13 -7 23 -3 11 3 9 -1
-6 -11 -12 -10 -20 -21 -18 -25 3 -4 1 -13 -3 -20 -6 -10 -10 -9 -14 4 -5 11
-3 14 6 9 6 -4 9 -4 5 1 -4 4 -3 13 2 20 7 8 5 12 -5 12 -7 0 -13 -5 -12 -11
1 -6 -4 -10 -10 -8 -7 1 -13 -2 -13 -8 0 -5 4 -10 8 -10 4 0 8 -9 9 -20 1 -11
-3 -20 -8 -20 -6 0 -8 4 -4 9 3 5 1 12 -4 15 -5 3 -8 -7 -7 -23 1 -21 -2 -27
-11 -24 -8 3 -13 0 -11 -8 2 -8 -3 -13 -10 -11 -7 1 -12 -5 -10 -15 2 -9 -7
-22 -19 -28 -18 -9 -20 -14 -10 -24 9 -10 8 -11 -7 -5 -13 5 -17 4 -12 -4 5
-8 1 -10 -11 -5 -15 6 -16 4 -5 -9 10 -13 10 -18 1 -24 -7 -4 -9 -3 -6 2 3 6
-3 16 -15 23 -16 10 -19 10 -12 -1 5 -7 9 -24 10 -38 1 -14 0 -17 -3 -7 -5 20
-19 22 -29 5 -5 -7 -3 -8 7 -3 11 7 12 6 2 -7 -7 -8 -10 -17 -7 -21 8 -8 -67
-57 -78 -51 -5 3 -5 11 -2 17 4 7 3 8 -1 4 -11 -10 -16 -39 -5 -32 4 3 11 -2
14 -11 3 -8 2 -12 -4 -9 -6 3 -10 2 -10 -2 0 -5 -7 -18 -16 -29 -8 -10 -13
-14 -10 -8 8 15 -21 26 -30 12 -4 -6 -3 -8 3 -5 6 4 13 -2 16 -14 4 -16 3 -18
-8 -9 -9 8 -17 7 -28 -4 -8 -8 -18 -12 -22 -8 -4 4 -6 3 -4 -3 4 -17 -12 -45
-22 -39 -5 3 -9 2 -8 -3 4 -24 -3 -35 -20 -30 -10 2 -25 0 -32 -5 -11 -8 -10
-9 4 -4 11 3 17 0 17 -10 0 -11 -5 -14 -16 -10 -13 5 -14 4 -5 -7 9 -12 6 -14
-14 -12 -21 3 -23 1 -15 -15 15 -29 12 -34 -7 -13 -10 10 -15 14 -11 8 4 -6
-6 -19 -23 -30 -16 -11 -29 -24 -29 -29 0 -5 11 1 25 14 14 13 25 20 25 16 0
-4 -12 -18 -27 -31 -21 -18 -32 -21 -46 -13 -17 9 -17 7 -6 -14 11 -21 11 -22
-5 -9 -14 12 -16 12 -10 -4 6 -14 4 -16 -6 -10 -8 5 -11 4 -7 -2 8 -13 -17
-36 -28 -25 -5 4 -5 -2 -1 -12 5 -15 4 -17 -7 -8 -17 14 -27 6 -20 -16 3 -11
-4 -8 -18 8 -14 16 -20 19 -16 8 3 -10 2 -20 -3 -23 -5 -3 -7 -12 -4 -20 4 -8
-1 -18 -10 -21 -9 -3 -13 -10 -10 -15 10 -16 -9 -9 -22 9 -12 15 -13 13 -3
-13 5 -16 7 -26 3 -23 -4 4 -20 0 -36 -10 -25 -15 -30 -15 -38 -2 -8 12 -11
13 -22 2 -11 -11 -10 -13 2 -10 19 4 14 -34 -6 -45 -8 -5 -12 -12 -9 -18 3 -5
-1 -6 -9 -3 -9 3 -13 11 -10 18 4 6 -1 3 -11 -6 -16 -15 -17 -19 -4 -35 12
-16 12 -17 -1 -7 -21 14 -43 12 -47 -6 -4 -13 -3 -13 6 0 9 13 11 13 11 -2 0
-13 -6 -17 -23 -14 -12 2 -28 -1 -34 -6 -7 -6 -13 -7 -13 -2 -1 5 -7 -2 -15
-16 -8 -15 -10 -29 -4 -36 5 -7 4 -11 -6 -11 -8 0 -12 4 -9 9 3 4 0 8 -5 8
-10 0 -16 -22 -12 -43 1 -5 -3 -6 -8 -3 -5 4 -12 2 -15 -3 -3 -5 -22 -7 -41
-5 -19 1 -37 -1 -39 -5 -3 -5 5 -7 18 -6 13 2 29 -1 37 -6 10 -7 6 -8 -13 -5
-15 3 -30 0 -33 -5 -4 -5 -1 -9 6 -9 7 0 9 -3 6 -7 -4 -3 -17 2 -29 13 -17 14
-19 15 -10 2 9 -11 11 -22 4 -34 -8 -15 -9 -15 -15 0 -5 11 -3 15 5 10 7 -4 8
-3 4 5 -11 17 -25 4 -21 -19 2 -13 -1 -17 -10 -14 -22 9 -38 -5 -25 -21 9 -11
6 -12 -12 -8 -13 4 -27 11 -31 17 -5 6 -6 2 -3 -10 5 -17 2 -20 -24 -18 -17 1
-28 -3 -27 -10 1 -6 -4 -10 -12 -8 -9 2 -11 -3 -7 -13 4 -12 0 -14 -19 -11
-14 3 -24 2 -24 -2 1 -4 1 -18 0 -31 -1 -23 -1 -23 -18 -4 -10 10 -14 13 -9 6
5 -8 4 -13 -3 -13 -7 0 -9 -5 -5 -12 4 -7 3 -8 -4 -4 -17 10 -35 -3 -25 -18 4
-7 0 -3 -9 7 -15 16 -18 16 -18 4 0 -9 -5 -19 -12 -23 -8 -5 -9 -2 -5 10 4 10
3 15 -3 11 -6 -3 -10 -13 -10 -21 0 -8 -5 -14 -11 -14 -5 0 -7 6 -3 13 6 9 5
9 -8 0 -8 -7 -19 -9 -23 -5 -5 4 -5 1 -1 -6 4 -7 12 -10 17 -7 15 10 10 -2 -8
-16 -11 -10 -14 -10 -9 -2 4 8 1 13 -9 13 -10 0 -13 5 -9 12 4 7 3 8 -4 4 -9
-5 -9 -13 -1 -29 12 -21 11 -21 -8 -5 -17 16 -22 16 -39 4 -10 -8 -19 -19 -19
-25 0 -6 -3 -11 -7 -11 -5 0 -11 0 -14 0 -4 0 1 12 10 27 l17 28 -21 -24 c-11
-13 -18 -31 -15 -40 3 -9 -4 -5 -16 9 -11 14 -17 19 -13 11 5 -11 3 -13 -9 -8
-10 4 -14 2 -11 -6 2 -7 -3 -13 -13 -14 -10 -1 -30 -5 -46 -9 -17 -4 -27 -2
-27 5 0 6 -4 11 -9 11 -15 0 -21 -31 -10 -53 9 -21 9 -20 -10 2 -12 13 -21 18
-21 13 0 -6 5 -14 10 -17 6 -4 7 -11 4 -17 -4 -7 -2 -8 4 -4 12 7 54 -33 46
-45 -2 -4 0 -10 5 -13 5 -4 13 -1 17 5 4 8 3 9 -5 5 -6 -4 -10 -4 -9 1 1 4 -4
19 -11 31 -7 13 -10 26 -8 29 3 2 8 -5 12 -16 3 -12 11 -18 17 -15 6 4 8 2 4
-4 -3 -6 2 -15 11 -21 11 -6 13 -11 5 -11 -7 0 -11 -4 -7 -10 3 -5 12 -7 19
-4 7 3 19 -3 27 -12 8 -10 9 -15 2 -11 -6 4 -14 3 -17 -2 -3 -5 5 -12 19 -15
14 -4 25 -11 25 -17 0 -8 -4 -8 -13 0 -10 8 -14 7 -14 -2 0 -7 9 -14 20 -14
11 -1 25 -7 31 -13 8 -8 6 -9 -9 -4 -18 7 -18 6 2 -15 12 -13 19 -31 16 -40
-4 -13 -3 -14 5 -1 7 9 7 19 2 25 -7 8 -5 12 5 12 8 0 12 -4 9 -8 -2 -4 4 -13
13 -19 16 -10 16 -11 -2 -5 -15 4 -17 3 -9 -5 6 -6 20 -12 32 -13 11 0 20 -4
20 -7 0 -3 3 -15 7 -28 6 -19 10 -20 24 -10 9 8 8 3 -4 -11 l-20 -24 22 7 c18
6 22 4 17 -8 -7 -19 7 -21 26 -3 7 6 6 1 -3 -13 -20 -28 -23 -52 -4 -27 9 13
16 14 27 6 13 -10 13 -10 -1 -6 -9 3 -16 -1 -16 -8 0 -9 7 -11 21 -5 12 4 19
14 18 22 -2 7 0 9 4 5 4 -4 9 -15 10 -23 5 -30 14 -45 24 -39 8 5 8 11 0 20
-8 10 -8 13 2 11 7 -1 18 -5 23 -8 6 -4 17 -3 25 3 20 12 30 11 30 -2 0 -5 -4
-7 -10 -4 -6 4 -7 -1 -3 -11 5 -15 7 -15 15 0 12 22 29 20 22 -2 -4 -11 -3
-13 3 -5 5 7 18 14 30 16 11 1 31 11 44 20 20 15 20 16 3 8 -12 -6 -25 -7 -29
-3 -5 4 -6 2 -2 -3 3 -6 -3 -12 -14 -12 -10 -1 -19 2 -19 8 0 5 3 8 8 8 4 -1
9 0 12 1 19 7 51 12 88 12 41 1 42 2 25 21 -18 20 -18 20 9 3 17 -11 28 -14
33 -6 3 6 10 8 15 5 4 -3 14 3 21 12 10 12 10 14 2 9 -7 -4 -13 -2 -13 3 0 6
7 11 16 11 8 0 13 4 10 9 -7 10 13 9 30 -2 7 -4 11 0 10 10 -1 14 7 17 38 16
26 -1 35 1 26 7 -8 5 -17 7 -21 4 -4 -2 -11 1 -15 7 -4 7 -3 9 3 6 6 -4 16 0
23 8 10 12 16 13 26 4 8 -6 11 -16 7 -22 -3 -6 -1 -7 6 -3 6 4 9 12 6 17 -4 5
-1 9 5 9 6 0 8 5 4 13 -5 8 -2 7 9 -2 15 -12 17 -12 12 0 -3 8 2 23 10 34 16
19 16 19 6 -2 -7 -14 -8 -24 -1 -28 10 -6 11 -5 14 13 2 18 36 43 48 36 7 -5
9 -2 5 8 -9 25 11 37 45 27 25 -7 28 -6 18 6 -7 8 -17 12 -24 8 -6 -3 -7 -2
-3 2 11 12 37 15 37 4 0 -5 8 -9 18 -9 14 0 15 2 2 10 -8 5 -11 12 -7 16 3 4
14 1 23 -7 16 -13 16 -12 4 11 -13 24 -12 24 5 10 13 -10 16 -11 11 -2 -6 9
-3 12 10 10 19 -3 27 22 11 33 -5 3 -2 9 7 12 8 3 18 1 22 -5 4 -7 3 -8 -4 -4
-8 5 -10 1 -5 -9 8 -22 23 0 18 26 -2 12 1 16 10 13 8 -3 11 -13 8 -22 -4 -14
-3 -15 5 -2 8 10 7 19 -1 29 -10 12 -9 13 10 3 19 -11 21 -10 18 6 -2 11 3 19
10 19 7 0 11 -7 8 -16 -3 -12 -2 -12 7 2 6 9 9 21 5 26 -3 5 -1 12 4 15 5 4
13 1 17 -5 5 -8 3 -9 -6 -4 -9 5 -11 4 -6 -4 10 -15 27 -4 20 13 -3 8 0 17 7
22 7 4 10 3 6 -3 -4 -6 0 -13 8 -17 8 -3 17 0 21 6 4 7 3 8 -4 4 -7 -4 -12 -1
-12 9 0 11 7 14 25 11 24 -5 40 5 28 18 -3 3 -13 0 -22 -6 -13 -9 -12 -8 1 7
14 15 19 16 33 5 9 -7 15 -9 14 -4 -4 22 2 35 13 28 7 -4 8 -3 4 5 -6 8 -12 9
-20 2 -9 -8 -13 -7 -13 3 0 9 9 13 24 11 19 -2 21 0 11 12 -6 8 -7 13 -2 12
20 -3 35 2 29 10 -6 10 11 24 33 27 6 1 9 -3 6 -8 -4 -6 -2 -8 4 -4 5 3 13 0
16 -6 3 -7 3 -3 0 9 -7 32 3 45 25 33 16 -8 17 -6 13 17 -4 23 -2 24 19 18 21
-7 22 -6 11 7 -11 13 -8 15 20 12 23 -3 29 -1 18 5 -8 6 -18 7 -22 5 -4 -3 -8
0 -8 7 0 6 8 9 19 6 16 -4 18 0 15 22 -5 25 -5 25 10 6 9 -11 16 -14 16 -8 0
7 3 12 8 12 19 -3 22 3 11 24 -11 20 -11 21 4 8 15 -12 17 -11 17 3 0 11 5 14
12 10 8 -5 9 -2 4 11 -6 16 -4 16 11 4 14 -12 16 -12 8 0 -6 11 -4 13 10 7 16
-6 16 -4 4 11 -10 12 -10 15 -1 9 19 -11 40 11 36 39 -1 14 2 25 7 25 6 0 9
-6 8 -12 -3 -29 4 -41 10 -18 5 14 3 31 -3 40 -6 8 0 6 13 -5 14 -11 21 -14
16 -6 -6 11 -4 13 7 8 12 -4 14 -1 11 14 -5 17 9 25 39 20 4 0 3 11 -2 25 -6
14 -6 23 -1 20 5 -3 14 0 20 8 9 11 9 15 -1 19 -7 3 -3 4 9 4 22 -1 22 -1 3
-22 -22 -23 -25 -35 -10 -35 5 0 9 6 7 13 -1 6 4 11 11 9 8 -1 11 2 8 7 -4 5
-2 12 3 16 6 3 8 12 4 20 -5 13 12 20 39 16 4 0 4 7 1 16 -4 10 -2 14 4 10 6
-4 22 6 36 22 14 17 28 27 32 23 4 -4 2 4 -5 18 -12 23 -12 24 4 11 15 -12 16
-12 9 5 -6 17 -5 18 12 4 17 -14 18 -14 7 7 -9 17 -9 22 3 27 9 3 12 12 9 23
-5 15 -4 15 4 3 8 -10 8 -18 0 -27 -6 -8 -8 -16 -4 -20 3 -3 6 -1 6 6 0 7 4
10 8 7 4 -2 9 5 9 17 3 46 10 62 28 59 9 -2 14 1 11 7 -4 5 -2 12 4 16 6 4 8
10 5 15 -3 4 2 11 10 14 13 5 14 2 4 -15 -6 -11 -8 -23 -5 -27 3 -3 6 0 6 7 0
7 4 9 10 6 6 -4 7 1 3 11 -5 12 -3 15 6 9 10 -6 11 -3 2 14 -9 17 -9 21 1 19
7 -2 14 8 16 21 3 19 6 21 13 10 7 -11 9 -10 9 4 0 12 4 16 13 11 7 -5 6 0 -3
11 -12 15 -12 17 -1 10 10 -6 13 -4 9 6 -4 10 1 15 12 16 10 1 29 13 42 26 22
21 23 26 9 35 -13 9 -12 10 8 7 13 -3 21 -1 17 2 -3 4 1 17 9 29 11 17 12 25
3 30 -7 5 -8 3 -3 -6 5 -9 4 -11 -4 -6 -6 4 -9 12 -5 17 3 5 10 6 16 3 8 -5 9
-1 5 10 -4 11 -3 15 4 11 17 -11 51 26 38 41 -8 9 -5 15 9 23 11 6 22 7 26 3
4 -3 4 1 1 10 -4 10 -14 15 -23 12 -14 -5 -14 -4 1 6 9 6 15 15 12 21 -4 5 -1
9 5 9 7 0 9 -7 6 -16 -3 -8 -2 -13 3 -9 5 3 12 -1 15 -7 3 -7 2 0 -1 17 -4 16
-6 34 -5 40 4 39 19 68 32 60 5 -3 12 0 16 6 4 8 3 9 -4 5 -7 -4 -12 -2 -12 4
0 6 -5 8 -12 4 -10 -6 -10 -5 -1 7 6 8 12 19 13 24 1 6 7 9 12 7 6 -2 8 4 5
11 -3 8 0 20 6 26 8 8 8 11 -1 11 -6 0 -16 -8 -21 -17 -6 -10 -11 -13 -11 -6
0 6 5 15 10 18 6 4 1 14 -12 25 -21 17 -21 18 -4 16 11 -2 22 -8 24 -14 2 -7
8 -12 13 -12 5 0 4 9 -3 20 -7 11 -18 20 -25 20 -6 0 -15 5 -19 12 -4 7 -3 8
4 4 7 -4 12 -1 12 8 0 16 -20 18 -31 3 -3 -5 -9 -2 -12 7 -3 8 -1 18 5 22 7 5
8 2 3 -6 -5 -9 -4 -11 4 -6 16 10 4 26 -14 19 -11 -3 -15 2 -15 18 0 20 2 21
11 9 9 -13 10 -13 6 0 -2 9 -14 14 -31 13 -25 -2 -26 0 -14 14 11 14 11 16 -1
8 -11 -6 -13 -4 -8 11 7 18 6 18 -7 2 -17 -23 -27 -23 -19 -1 5 13 2 15 -11
10 -10 -4 -15 -3 -11 3 4 6 3 19 0 31 -6 17 -9 18 -23 7 -12 -10 -14 -10 -8 0
4 7 2 12 -6 12 -9 0 -9 3 2 10 11 7 11 10 2 10 -8 0 -10 5 -6 13 6 9 5 9 -8 0
-19 -16 -32 -5 -16 14 8 10 8 17 -1 26 -10 9 -11 8 -5 -6 5 -13 2 -16 -10 -11
-9 3 -13 10 -11 15 3 5 -3 16 -14 25 -11 10 -17 24 -14 33 4 12 2 11 -9 -3
-14 -17 -15 -17 -32 -1 -13 13 -14 20 -5 31 7 8 9 17 5 21 -3 3 -6 1 -6 -5 0
-6 -9 -10 -19 -9 -11 0 -17 5 -15 9 3 5 9 6 13 4 4 -3 8 1 8 9 0 8 -3 13 -5
10 -3 -3 -11 3 -19 13 -13 15 -13 15 -3 -5z m95 -113 c3 -5 1 -10 -4 -10 -6 0
-11 5 -11 10 0 6 2 10 4 10 3 0 8 -4 11 -10z m-140 -38 c-3 -3 -11 0 -18 7 -9
10 -8 11 6 5 10 -3 15 -9 12 -12z m-5 -26 c0 -3 -4 -8 -10 -11 -5 -3 -10 -1
-10 4 0 6 5 11 10 11 6 0 10 -2 10 -4z m327 -148 c-3 -8 -6 -5 -6 6 -1 11 2
17 5 13 3 -3 4 -12 1 -19z m3 -413 c0 -2 -6 -8 -13 -14 -10 -8 -14 -7 -14 2 0
8 6 14 14 14 7 0 13 -1 13 -2z m-90 -138 c0 -2 -8 -11 -18 -20 -15 -14 -19
-15 -19 -2 0 8 4 12 9 9 4 -3 8 0 8 5 0 6 5 11 10 11 6 0 10 -2 10 -3z m-814
-32 c-8 -8 -18 -15 -22 -15 -3 0 -1 7 6 15 7 8 17 15 22 15 5 0 3 -7 -6 -15z
m525 -324 c-18 -33 -37 -43 -51 -27 -10 13 -8 15 10 11 16 -3 20 0 16 10 -3 8
0 14 7 12 7 -1 11 4 9 11 -1 8 2 11 8 7 6 -4 7 -12 1 -24z m-871 9 c0 -5 -5
-10 -11 -10 -5 0 -7 5 -4 10 3 6 8 10 11 10 2 0 4 -4 4 -10z m680 -190 c0 -5
-5 -10 -11 -10 -5 0 -7 5 -4 10 3 6 8 10 11 10 2 0 4 -4 4 -10z m-950 -65 c0
-5 -4 -4 -9 4 -10 16 -34 5 -25 -12 5 -8 3 -8 -6 0 -12 11 -11 15 5 27 20 14
35 6 35 -19z m885 -4 c3 -5 0 -13 -6 -17 -7 -4 -9 -3 -5 4 3 5 0 13 -6 15 -9
4 -10 6 -1 6 6 1 14 -3 18 -8z m-1215 -201 c0 -5 -7 -10 -16 -10 -8 0 -12 5
-9 10 3 6 10 10 16 10 5 0 9 -4 9 -10z m-67 -56 c-4 -12 -8 -13 -14 -3 -9 15
-2 32 11 24 5 -3 6 -13 3 -21z m-249 -109 c-7 -16 -24 -21 -24 -6 0 8 7 13 27
20 1 1 0 -6 -3 -14z m-207 -70 c0 -8 -4 -12 -9 -9 -4 3 -8 9 -8 15 0 5 4 9 8
9 5 0 9 -7 9 -15z m1128 -85 c3 -6 -1 -7 -9 -4 -18 7 -21 14 -7 14 6 0 13 -4
16 -10z m-451 -271 c-3 -5 -10 -7 -15 -3 -5 3 -7 10 -3 15 3 5 10 7 15 3 5 -3
7 -10 3 -15z"/>
<path d="M2340 2426 c0 -2 7 -9 15 -16 9 -7 15 -8 15 -2 0 5 -7 12 -15 16 -8
3 -15 4 -15 2z"/>
<path d="M2175 2310 c3 -5 8 -10 11 -10 2 0 4 5 4 10 0 6 -5 10 -11 10 -5 0
-7 -4 -4 -10z"/>
<path d="M2179 2262 c11 -8 11 -10 0 -14 -10 -3 -9 -6 3 -10 11 -5 15 -2 14
10 -2 9 -9 18 -17 20 -12 3 -12 2 0 -6z"/>
<path d="M1196 2182 c-3 -5 1 -9 9 -9 8 0 12 4 9 9 -3 4 -7 8 -9 8 -2 0 -6 -4
-9 -8z"/>
<path d="M1962 2040 c-7 -12 -8 -21 -2 -25 6 -4 9 -1 8 7 -2 7 4 12 14 10 9
-1 20 3 24 9 5 8 3 9 -6 4 -7 -4 -15 -3 -19 3 -4 7 -11 4 -19 -8z"/>
<path d="M2663 1965 c0 -8 4 -12 9 -9 5 3 6 10 3 15 -9 13 -12 11 -12 -6z"/>
<path d="M1914 1900 c0 -13 4 -16 10 -10 7 7 7 13 0 20 -6 6 -10 3 -10 -10z"/>
<path d="M2645 1910 c-3 -5 -1 -10 4 -10 6 0 11 5 11 10 0 6 -2 10 -4 10 -3 0
-8 -4 -11 -10z"/>
<path d="M1806 1837 c3 -10 9 -15 12 -12 3 3 0 11 -7 18 -10 9 -11 8 -5 -6z"/>
<path d="M1746 1772 c-3 -5 1 -9 9 -9 8 0 15 4 15 9 0 4 -4 8 -9 8 -6 0 -12
-4 -15 -8z"/>
<path d="M1799 1755 c-1 -3 -2 -11 -3 -17 -1 -7 -10 -12 -21 -10 -16 2 -17 1
-6 -7 10 -6 22 -6 35 1 14 7 16 13 8 16 -6 2 -10 8 -6 13 3 5 3 9 0 9 -3 0 -7
-2 -7 -5z"/>
<path d="M1706 1648 c3 -4 9 -8 15 -8 5 0 9 4 9 8 0 5 -7 9 -15 9 -8 0 -12 -4
-9 -9z"/>
<path d="M480 1521 c0 -6 4 -13 10 -16 6 -3 7 1 4 9 -7 18 -14 21 -14 7z"/>
<path d="M2396 1463 c-6 -14 -5 -15 5 -6 7 7 10 15 7 18 -3 3 -9 -2 -12 -12z"/>
<path d="M1377 1403 c-4 -3 -7 -11 -7 -17 0 -6 5 -5 12 2 6 6 9 14 7 17 -3 3
-9 2 -12 -2z"/>
<path d="M1345 1381 c-6 -11 13 -26 22 -17 4 3 1 6 -6 6 -7 0 -9 5 -6 10 3 6
4 10 1 10 -3 0 -7 -4 -11 -9z"/>
<path d="M320 1315 c-7 -9 -8 -15 -2 -15 5 0 12 7 16 15 3 8 4 15 2 15 -2 0
-9 -7 -16 -15z"/>
<path d="M1237 1284 c-4 -4 -7 -11 -7 -15 0 -9 27 -5 37 6 4 4 3 5 -4 2 -6 -4
-13 -2 -15 4 -2 5 -7 7 -11 3z"/>
<path d="M1270 1246 c0 -2 7 -7 16 -10 8 -3 12 -2 9 4 -6 10 -25 14 -25 6z"/>
<path d="M1213 1183 c0 -10 4 -10 16 -1 9 7 18 13 20 15 2 1 -5 1 -16 0 -11 0
-20 -7 -20 -14z"/>
<path d="M1146 1128 c3 -5 10 -6 15 -3 13 9 11 12 -6 12 -8 0 -12 -4 -9 -9z"/>
<path d="M950 1026 c0 -2 8 -10 18 -17 15 -13 16 -12 3 4 -13 16 -21 21 -21
13z"/>
<path d="M890 989 c0 -5 5 -7 10 -4 6 3 10 8 10 11 0 2 -4 4 -10 4 -5 0 -10
-5 -10 -11z"/>
<path d="M950 971 c0 -8 -7 -10 -21 -6 -19 6 -20 5 -8 -8 12 -13 16 -13 28 -1
8 7 12 17 8 20 -4 4 -7 2 -7 -5z"/>
<path d="M616 817 c3 -10 9 -15 12 -12 3 3 0 11 -7 18 -10 9 -11 8 -5 -6z"/>
<path d="M1645 740 c-3 -5 -1 -10 4 -10 6 0 11 5 11 10 0 6 -2 10 -4 10 -3 0
-8 -4 -11 -10z"/>
<path d="M556 728 c3 -4 11 -5 19 -1 21 7 19 12 -4 10 -11 0 -18 -5 -15 -9z"/>
<path d="M296 664 c-8 -22 -4 -25 11 -9 7 8 9 16 4 19 -5 3 -12 -1 -15 -10z"/>
<path d="M265 660 c-3 -5 -12 -7 -20 -3 -8 3 -15 1 -15 -4 0 -5 11 -9 23 -9
13 0 24 6 24 13 0 15 -4 16 -12 3z"/>
<path d="M225 611 c-9 -15 15 -25 28 -12 9 9 7 10 -7 5 -13 -5 -17 -4 -12 4 4
7 5 12 2 12 -3 0 -7 -4 -11 -9z"/>
<path d="M265 439 c-11 -16 -1 -19 13 -3 7 8 8 14 3 14 -5 0 -13 -5 -16 -11z"/>
<path d="M1195 401 c-3 -5 -1 -12 5 -16 5 -3 10 1 10 9 0 18 -6 21 -15 7z"/>
<path d="M1035 300 c-3 -5 -1 -10 4 -10 6 0 11 5 11 10 0 6 -2 10 -4 10 -3 0
-8 -4 -11 -10z"/>
<path d="M405 279 c-4 -6 -4 -13 -1 -16 3 -4 6 -1 6 7 0 10 4 10 18 -1 15 -13
16 -12 3 4 -16 20 -18 20 -26 6z"/>
<path d="M945 241 c-6 -11 13 -26 22 -17 4 3 1 6 -6 6 -7 0 -9 5 -6 10 3 6 4
10 1 10 -3 0 -7 -4 -11 -9z"/>
<path d="M606 137 c3 -10 9 -15 12 -12 3 3 0 11 -7 18 -10 9 -11 8 -5 -6z"/>
<path d="M630 130 c0 -5 5 -10 10 -10 6 0 10 5 10 10 0 6 -4 10 -10 10 -5 0
-10 -4 -10 -10z"/>
</g>
</svg>
